Coordinates
version=1
nRows=27
nColumns=12
inDegrees=yes

Units are S.I. units (second, meters, Newtons, ...)
Angles are in degrees

endheader
time	SC_y	SC_z	SC_x	AC_y	AC_z	AC_x	GH_y	GH_z	GH_yy	EL_x	PS_y
       0.0              -15.25        -0.6858          66.57           47.8         -5.867          12.16          143.9          1.611         -48.93          138.8          107.9
  0.006592              -15.25        -0.6821          66.56          47.81         -5.866          12.16          143.9          1.614         -48.92          138.7          107.9
   0.01318              -15.25        -0.6782          66.56          47.81         -5.865          12.16          143.9          1.618         -48.91          138.7          107.8
   0.01977              -15.25         -0.674          66.55          47.81         -5.864          12.16          143.9          1.621          -48.9          138.7          107.8
   0.02637              -15.25        -0.6695          66.54          47.81         -5.863          12.16          143.9          1.625         -48.88          138.7          107.8
   0.03296              -15.25        -0.6647          66.53          47.81         -5.862          12.16          143.9          1.629         -48.87          138.7          107.8
   0.03955              -15.25        -0.6596          66.52          47.81         -5.861          12.16          143.9          1.633         -48.85          138.6          107.8
   0.04614              -15.25        -0.6542          66.51          47.81          -5.86          12.16          143.9          1.638         -48.83          138.6          107.8
   0.05273              -15.24        -0.6484          66.49          47.82         -5.859          12.16          143.9          1.643         -48.81          138.6          107.7
   0.05932              -15.24        -0.6421          66.48          47.82         -5.858          12.17          143.9          1.648         -48.79          138.6          107.7
   0.06592              -15.24        -0.6354          66.47          47.82         -5.856          12.17          143.9          1.654         -48.77          138.5          107.7
   0.07251              -15.24        -0.6282          66.45          47.82         -5.855          12.17          143.9           1.66         -48.75          138.5          107.7
    0.0791              -15.24        -0.6204          66.44          47.83         -5.853          12.17          144.0          1.666         -48.72          138.5          107.6
   0.08569              -15.24         -0.612          66.42          47.83         -5.852          12.17          144.0          1.674         -48.69          138.4          107.6
   0.09228              -15.24        -0.6029           66.4          47.83          -5.85          12.17          144.0          1.681         -48.66          138.4          107.6
   0.09887              -15.24         -0.593          66.38          47.84         -5.848          12.17          144.0           1.69         -48.63          138.4          107.5
    0.1055              -15.24        -0.5822          66.36          47.84         -5.846          12.17          144.0          1.699          -48.6          138.3          107.5
    0.1121              -15.23        -0.5706          66.33          47.84         -5.843          12.17          144.0          1.709         -48.56          138.3          107.5
    0.1186              -15.23        -0.5578          66.31          47.85         -5.841          12.17          144.0          1.719         -48.52          138.2          107.4
    0.1252              -15.23        -0.5438          66.28          47.85         -5.838          12.17          144.0          1.731         -48.47          138.2          107.4
    0.1318              -15.23        -0.5285          66.25          47.86         -5.835          12.17          144.0          1.744         -48.42          138.1          107.3
    0.1384              -15.23        -0.5116          66.21          47.86         -5.831          12.18          144.1          1.759         -48.37          138.0          107.2
     0.145              -15.22        -0.4929          66.17          47.87         -5.828          12.18          144.1          1.774         -48.31          138.0          107.2
    0.1516              -15.22        -0.4722          66.13          47.88         -5.824          12.18          144.1          1.792         -48.24          137.9          107.1
    0.1582              -15.22        -0.4492          66.08          47.89         -5.819          12.18          144.1          1.811         -48.17          137.8          107.0
    0.1648              -15.21        -0.4236          66.03          47.89         -5.814          12.18          144.1          1.833         -48.08          137.7          106.9
    0.1714              -15.21        -0.3949          65.97           47.9         -5.808          12.19          144.2          1.857         -47.99          137.5          106.8
